<mxfile host="app.diagrams.net" modified="2023-04-11T08:06:15.758Z" agent="Mozilla/5.0 (Windows NT 10.0; Win64; x64) AppleWebKit/537.36 (KHTML, like Gecko) Chrome/111.0.0.0 Safari/537.36" version="21.1.5" etag="seJk3EgKkb8eV67bEhxY" type="github">
  <diagram name="第 1 页" id="0MWEX73DkwURR9G_DFWl">
    <mxGraphModel>
      <root>
        <mxCell id="0" />
        <mxCell id="1" parent="0" />
      </root>
    </mxGraphModel>
  </diagram>
</mxfile>
